<?xml version="1.0" standalone="no"?>
<!DOCTYPE svg PUBLIC "-//W3C//DTD SVG 20010904//EN"
 "http://www.w3.org/TR/2001/REC-SVG-20010904/DTD/svg10.dtd">
<svg style="transform:rotate3d(1,1,0,180deg);" class="img-fluid" id="outputsvg" xmlns="http://www.w3.org/2000/svg" width="256" height="256" viewBox="0 0 7310 7310"><g id="l53IsfoYbUUXDUY1LevxEJG" fill="rgb(201,27,51)" style="transform: none; --darkreader-inline-fill:#e6455c;" data-darkreader-inline-fill=""><g><path id="pqngq2N38" d="M2720 4482 l0 -1830 114 -27 c63 -15 127 -25 143 -23 l28 3 3 1809 c1 1395 -1 1816 -10 1837 -14 31 -60 43 -200 55 l-78 6 0 -1830z"></path></g></g><g id="l6PjTLiNwT37AmLiMYUJMu0" fill="rgb(237,22,58)" stroke="rgb(237,22,58)" stroke-width="10" style="transform: none; --darkreader-inline-fill:#ef2d4d; --darkreader-inline-stroke:#ef2d4d;" data-darkreader-inline-fill="" data-darkreader-inline-stroke=""><g><path id="phSpLWcgE" d="M2730 6270 c0 -22 5 -40 10 -40 6 0 10 12 10 28 0 19 3 23 9 13 6 -9 19 -12 40 -8 17 4 31 3 31 -1 0 -4 18 -13 40 -18 33 -9 40 -9 43 5 4 13 5 13 6 -1 1 -20 31 -25 31 -5 0 6 7 -1 15 -17 13 -25 15 -249 15 -1807 0 -978 -4 -1780 -8 -1783 -4 -2 -56 7 -115 21 -74 17 -107 29 -107 39 0 8 -7 14 -15 14 -12 0 -15 -13 -15 -60 l0 -60 35 0 c24 0 35 5 35 15 0 18 0 18 75 0 33 -8 81 -15 108 -15 l47 0 0 1779 c0 978 3 1805 6 1837 l6 59 -103 23 c-57 12 -125 22 -151 22 l-48 0 0 -40z"></path></g></g><g id="l4lAbhS1XFCRvVCzu8DZ5Vl" fill="rgb(237,22,58)" stroke="rgb(237,22,58)" stroke-width="10" style="transform: none; --darkreader-inline-fill:#ef2d4d; --darkreader-inline-stroke:#ef2d4d;" data-darkreader-inline-fill="" data-darkreader-inline-stroke=""><g><path id="phqshM7od" d="M0 3655 l0 -3655 3655 0 3655 0 0 3655 0 3655 -1760 0 c-1558 0 -1760 -2 -1760 -15 0 -12 13 -15 60 -15 33 0 60 -4 60 -10 0 -5 21 -10 48 -10 65 0 343 -43 481 -74 530 -120 1026 -360 1468 -712 131 -104 459 -433 566 -567 423 -535 672 -1111 767 -1785 11 -75 20 -172 20 -214 0 -45 4 -78 10 -78 6 0 10 -63 10 -170 0 -93 -4 -170 -9 -170 -4 0 -11 -55 -14 -122 -5 -111 -44 -379 -67 -468 -145 -552 -274 -853 -537 -1247 -230 -344 -591 -713 -926 -947 -462 -322 -988 -535 -1534 -621 -618 -98 -1273 -22 -1868 217 -94 38 -385 179 -485 235 -96 55 -330 216 -435 300 -140 112 -390 356 -510 498 -494 586 -791 1303 -846 2040 -18 236 -6 593 26 800 121 780 476 1478 1035 2035 299 298 594 508 975 695 270 133 511 218 786 281 138 31 416 74 482 74 26 0 47 5 47 10 0 6 50 10 130 10 109 0 130 2 130 15 0 13 -210 15 -1830 15 l-1830 0 0 -3655z"></path><path id="pkxNCgtC" d="M2966 6255 c-3 -10 1 -15 12 -15 16 0 17 -104 14 -1807 -1 -993 -4 -1809 -7 -1811 -5 -6 -149 22 -202 39 -18 6 -33 17 -33 25 0 8 -7 14 -15 14 -13 0 -15 -45 -17 -324 l-3 -324 -113 34 c-253 77 -505 221 -669 383 -39 39 -58 51 -82 51 -29 0 -31 -2 -31 -35 0 -42 52 -123 182 -287 316 -398 652 -661 1208 -945 253 -130 607 -263 698 -263 l52 0 0 1860 c0 1023 2 1860 4 1860 15 0 165 -59 293 -116 506 -222 939 -527 1388 -978 254 -255 463 -506 630 -758 54 -82 60 -88 92 -88 32 0 33 2 33 38 0 76 -119 473 -211 705 -355 893 -902 1572 -1694 2102 -416 278 -830 468 -1337 615 -148 43 -183 48 -192 25z"></path></g></g><g id="l5FL1uUayqzFzGynJh7Lade" fill="rgb(255,251,243)" stroke="rgb(255,251,243)" stroke-width="10" style="transform: none; --darkreader-inline-fill:#ffebc4; --darkreader-inline-stroke:#ffebc4;" data-darkreader-inline-fill="" data-darkreader-inline-stroke=""><g><path id="px1TOYPI" d="M3470 7299 c-493 -20 -961 -141 -1415 -364 -381 -187 -676 -397 -975 -695 -557 -555 -908 -1243 -1035 -2030 -25 -150 -27 -196 -31 -495 -4 -347 1 -424 41 -670 105 -635 383 -1234 810 -1740 120 -142 370 -386 510 -498 105 -84 339 -245 435 -300 100 -56 391 -197 485 -235 1073 -431 2300 -323 3286 288 242 150 437 306 654 524 462 463 766 985 938 1611 49 177 62 238 86 391 33 208 39 309 36 629 -3 238 -8 328 -24 437 -102 687 -345 1251 -768 1785 -107 134 -435 463 -566 567 -509 405 -1083 659 -1706 756 -149 24 -441 50 -526 48 -33 0 -139 -4 -235 -9z m-510 -1053 c653 -162 1270 -459 1784 -860 707 -551 1205 -1260 1500 -2138 50 -149 130 -437 124 -444 -3 -2 -31 35 -63 83 -285 430 -740 911 -1169 1237 -251 190 -565 375 -849 500 -131 58 -333 136 -351 136 -3 0 -6 -842 -6 -1871 l0 -1872 -40 7 c-96 15 -496 176 -680 273 -559 296 -868 540 -1178 931 -81 101 -182 245 -182 257 0 4 24 -17 53 -45 191 -190 535 -370 800 -419 l47 -8 0 2135 0 2135 57 -7 c31 -4 100 -17 153 -30z"></path></g></g></svg>
